<svg xmlns="http://www.w3.org/2000/svg" xmlns:xlink="http://www.w3.org/1999/xlink" width="1920" zoomAndPan="magnify" viewBox="0 0 1440 809.999993" height="1080" preserveAspectRatio="xMidYMid meet" version="1.0"><defs><clipPath id="6fe6ad782b"><path d="M 0 495.5625 L 314.25 495.5625 L 314.25 809.8125 L 0 809.8125 Z M 0 495.5625 " clip-rule="nonzero"/></clipPath><clipPath id="ee331c9120"><path d="M 0 656 L 154 656 L 154 809.8125 L 0 809.8125 Z M 0 656 " clip-rule="nonzero"/></clipPath><clipPath id="6f3e1c01b4"><path d="M 0 607 L 203 607 L 203 809.8125 L 0 809.8125 Z M 0 607 " clip-rule="nonzero"/></clipPath><clipPath id="f261c9f79e"><path d="M 32 671 L 174 671 L 174 809.8125 L 32 809.8125 Z M 32 671 " clip-rule="nonzero"/></clipPath><clipPath id="533558b043"><path d="M 0.1875 495.75 L 314.4375 495.75 L 314.4375 810 L 0.1875 810 Z M 0.1875 495.75 " clip-rule="nonzero"/></clipPath><clipPath id="6801d65645"><path d="M 160 495.75 L 314.4375 495.75 L 314.4375 650 L 160 650 Z M 160 495.75 " clip-rule="nonzero"/></clipPath><clipPath id="e8445741ec"><path d="M 111 495.75 L 314.4375 495.75 L 314.4375 699 L 111 699 Z M 111 495.75 " clip-rule="nonzero"/></clipPath><clipPath id="ab33153503"><path d="M 141 495.75 L 283 495.75 L 283 634 L 141 634 Z M 141 495.75 " clip-rule="nonzero"/></clipPath><clipPath id="0d37886c1a"><path d="M 205 635 L 314.4375 635 L 314.4375 747 L 205 747 Z M 205 635 " clip-rule="nonzero"/></clipPath><clipPath id="6240e0f6c9"><path d="M 312.9375 495.75 L 627.1875 495.75 L 627.1875 810 L 312.9375 810 Z M 312.9375 495.75 " clip-rule="nonzero"/></clipPath><clipPath id="b1f35c1036"><path d="M 473 656 L 627.1875 656 L 627.1875 810 L 473 810 Z M 473 656 " clip-rule="nonzero"/></clipPath><clipPath id="9b012cb7ed"><path d="M 424 607 L 627.1875 607 L 627.1875 810 L 424 810 Z M 424 607 " clip-rule="nonzero"/></clipPath><clipPath id="ce087d9bb3"><path d="M 488 636 L 627.1875 636 L 627.1875 778 L 488 778 Z M 488 636 " clip-rule="nonzero"/></clipPath><clipPath id="f1b4a6ad5c"><path d="M 313.125 495.5625 L 627.375 495.5625 L 627.375 809.8125 L 313.125 809.8125 Z M 313.125 495.5625 " clip-rule="nonzero"/></clipPath><clipPath id="9c3b3dee8c"><path d="M 313.125 495.5625 L 467 495.5625 L 467 650 L 313.125 650 Z M 313.125 495.5625 " clip-rule="nonzero"/></clipPath><clipPath id="735c3ac981"><path d="M 313.125 495.5625 L 516 495.5625 L 516 699 L 313.125 699 Z M 313.125 495.5625 " clip-rule="nonzero"/></clipPath><clipPath id="a4f33cd8dd"><path d="M 313.125 527 L 452 527 L 452 669 L 313.125 669 Z M 313.125 527 " clip-rule="nonzero"/></clipPath><clipPath id="634708b525"><path d="M 452 495.5625 L 564 495.5625 L 564 605 L 452 605 Z M 452 495.5625 " clip-rule="nonzero"/></clipPath><clipPath id="c6031f80f9"><path d="M 0 81 L 199.050781 81 L 199.050781 395.25 L 0 395.25 Z M 0 81 " clip-rule="nonzero"/></clipPath><clipPath id="c6dd9133ae"><path d="M 0 241 L 39 241 L 39 395.25 L 0 395.25 Z M 0 241 " clip-rule="nonzero"/></clipPath><clipPath id="a05988a8f0"><path d="M 0 192 L 88 192 L 88 395.25 L 0 395.25 Z M 0 192 " clip-rule="nonzero"/></clipPath><clipPath id="7685dc0d05"><path d="M 0 256 L 58 256 L 58 395.25 L 0 395.25 Z M 0 256 " clip-rule="nonzero"/></clipPath><clipPath id="7db58bb14e"><path d="M 0 81.1875 L 199.304688 81.1875 L 199.304688 395.4375 L 0 395.4375 Z M 0 81.1875 " clip-rule="nonzero"/></clipPath><clipPath id="5f844c212c"><path d="M 45 81.1875 L 199.304688 81.1875 L 199.304688 235 L 45 235 Z M 45 81.1875 " clip-rule="nonzero"/></clipPath><clipPath id="afd7de3333"><path d="M 0 81.1875 L 199.304688 81.1875 L 199.304688 284 L 0 284 Z M 0 81.1875 " clip-rule="nonzero"/></clipPath><clipPath id="7757b8d2a5"><path d="M 26 81.1875 L 168 81.1875 L 168 220 L 26 220 Z M 26 81.1875 " clip-rule="nonzero"/></clipPath><clipPath id="b221a97489"><path d="M 90 220 L 199.304688 220 L 199.304688 333 L 90 333 Z M 90 220 " clip-rule="nonzero"/></clipPath><clipPath id="deac61bbbb"><path d="M 313.125 182.8125 L 627.375 182.8125 L 627.375 497.0625 L 313.125 497.0625 Z M 313.125 182.8125 " clip-rule="nonzero"/></clipPath><clipPath id="d1844d52cd"><path d="M 473 182.8125 L 627.375 182.8125 L 627.375 337 L 473 337 Z M 473 182.8125 " clip-rule="nonzero"/></clipPath><clipPath id="b50978e5aa"><path d="M 424 182.8125 L 627.375 182.8125 L 627.375 386 L 424 386 Z M 424 182.8125 " clip-rule="nonzero"/></clipPath><clipPath id="be60af8071"><path d="M 454 182.8125 L 596 182.8125 L 596 322 L 454 322 Z M 454 182.8125 " clip-rule="nonzero"/></clipPath><clipPath id="5b4c948401"><path d="M 518 322 L 627.375 322 L 627.375 434 L 518 434 Z M 518 322 " clip-rule="nonzero"/></clipPath><clipPath id="e34f522b46"><path d="M 312.9375 182.625 L 627.1875 182.625 L 627.1875 496.875 L 312.9375 496.875 Z M 312.9375 182.625 " clip-rule="nonzero"/></clipPath><clipPath id="85ff6c6bb8"><path d="M 312.9375 343 L 467 343 L 467 496.875 L 312.9375 496.875 Z M 312.9375 343 " clip-rule="nonzero"/></clipPath><clipPath id="f5572b3e83"><path d="M 312.9375 294 L 516 294 L 516 496.875 L 312.9375 496.875 Z M 312.9375 294 " clip-rule="nonzero"/></clipPath><clipPath id="1d34a6bfa5"><path d="M 345 358 L 487 358 L 487 496.875 L 345 496.875 Z M 345 358 " clip-rule="nonzero"/></clipPath><clipPath id="518f38142e"><path d="M 312.9375 246 L 422 246 L 422 358 L 312.9375 358 Z M 312.9375 246 " clip-rule="nonzero"/></clipPath><clipPath id="fb5e03fb2e"><path d="M 0.1875 182.625 L 314.4375 182.625 L 314.4375 496.875 L 0.1875 496.875 Z M 0.1875 182.625 " clip-rule="nonzero"/></clipPath><clipPath id="d3a3348217"><path d="M 0.1875 182.625 L 154 182.625 L 154 337 L 0.1875 337 Z M 0.1875 182.625 " clip-rule="nonzero"/></clipPath><clipPath id="83fc1fe349"><path d="M 0.1875 182.625 L 203 182.625 L 203 386 L 0.1875 386 Z M 0.1875 182.625 " clip-rule="nonzero"/></clipPath><clipPath id="7e21d10e11"><path d="M 0.1875 214 L 139 214 L 139 356 L 0.1875 356 Z M 0.1875 214 " clip-rule="nonzero"/></clipPath><clipPath id="47fd581154"><path d="M 139 182.625 L 252 182.625 L 252 292 L 139 292 Z M 139 182.625 " clip-rule="nonzero"/></clipPath><clipPath id="94fd206ba4"><path d="M 0 182.8125 L 314.25 182.8125 L 314.25 497.0625 L 0 497.0625 Z M 0 182.8125 " clip-rule="nonzero"/></clipPath><clipPath id="019e54ee80"><path d="M 160 343 L 314.25 343 L 314.25 497.0625 L 160 497.0625 Z M 160 343 " clip-rule="nonzero"/></clipPath><clipPath id="d75fff6857"><path d="M 111 294 L 314.25 294 L 314.25 497.0625 L 111 497.0625 Z M 111 294 " clip-rule="nonzero"/></clipPath><clipPath id="6ab7fd82a2"><path d="M 176 323 L 314.25 323 L 314.25 465 L 176 465 Z M 176 323 " clip-rule="nonzero"/></clipPath><clipPath id="0a6e6f6dbe"><path d="M 63 388 L 175 388 L 175 497.0625 L 63 497.0625 Z M 63 388 " clip-rule="nonzero"/></clipPath><clipPath id="1d68bb1023"><path d="M 0 0 L 314.25 0 L 314.25 183.109375 L 0 183.109375 Z M 0 0 " clip-rule="nonzero"/></clipPath><clipPath id="07d3f36b11"><path d="M 0 29 L 154 29 L 154 183.109375 L 0 183.109375 Z M 0 29 " clip-rule="nonzero"/></clipPath><clipPath id="04d7c372cb"><path d="M 0 0 L 203 0 L 203 183.109375 L 0 183.109375 Z M 0 0 " clip-rule="nonzero"/></clipPath><clipPath id="0b4813d106"><path d="M 32 44 L 174 44 L 174 183.109375 L 32 183.109375 Z M 32 44 " clip-rule="nonzero"/></clipPath><clipPath id="dbb3b08db8"><path d="M 0.1875 0 L 314.4375 0 L 314.4375 183.375 L 0.1875 183.375 Z M 0.1875 0 " clip-rule="nonzero"/></clipPath><clipPath id="b48a3d7377"><path d="M 160 0 L 314.4375 0 L 314.4375 23 L 160 23 Z M 160 0 " clip-rule="nonzero"/></clipPath><clipPath id="c670401f93"><path d="M 111 0 L 314.4375 0 L 314.4375 72 L 111 72 Z M 111 0 " clip-rule="nonzero"/></clipPath><clipPath id="af9eeccb54"><path d="M 205 8 L 314.4375 8 L 314.4375 120 L 205 120 Z M 205 8 " clip-rule="nonzero"/></clipPath><clipPath id="d419d3f23d"><path d="M 312.9375 0 L 627.1875 0 L 627.1875 183.375 L 312.9375 183.375 Z M 312.9375 0 " clip-rule="nonzero"/></clipPath><clipPath id="b1c0914d59"><path d="M 473 29 L 627.1875 29 L 627.1875 183.375 L 473 183.375 Z M 473 29 " clip-rule="nonzero"/></clipPath><clipPath id="35917dc77c"><path d="M 424 0 L 627.1875 0 L 627.1875 183.375 L 424 183.375 Z M 424 0 " clip-rule="nonzero"/></clipPath><clipPath id="948d13b75b"><path d="M 488 10 L 627.1875 10 L 627.1875 152 L 488 152 Z M 488 10 " clip-rule="nonzero"/></clipPath><clipPath id="dceebc6820"><path d="M 376 74 L 488 74 L 488 183.375 L 376 183.375 Z M 376 74 " clip-rule="nonzero"/></clipPath><clipPath id="4268d5c8cb"><path d="M 313.125 0 L 627.375 0 L 627.375 183.1875 L 313.125 183.1875 Z M 313.125 0 " clip-rule="nonzero"/></clipPath><clipPath id="30260d3085"><path d="M 313.125 0 L 467 0 L 467 23 L 313.125 23 Z M 313.125 0 " clip-rule="nonzero"/></clipPath><clipPath id="2e9fb4a95f"><path d="M 313.125 0 L 516 0 L 516 72 L 313.125 72 Z M 313.125 0 " clip-rule="nonzero"/></clipPath><clipPath id="b6931efdeb"><path d="M 313.125 0 L 452 0 L 452 43 L 313.125 43 Z M 313.125 0 " clip-rule="nonzero"/></clipPath><clipPath id="d4547d5287"><path d="M 938.25 183.5625 L 1252.5 183.5625 L 1252.5 497.8125 L 938.25 497.8125 Z M 938.25 183.5625 " clip-rule="nonzero"/></clipPath><clipPath id="cb9c9d2cbd"><path d="M 1098 183.5625 L 1252.5 183.5625 L 1252.5 338 L 1098 338 Z M 1098 183.5625 " clip-rule="nonzero"/></clipPath><clipPath id="d2495f9905"><path d="M 1049 183.5625 L 1252.5 183.5625 L 1252.5 387 L 1049 387 Z M 1049 183.5625 " clip-rule="nonzero"/></clipPath><clipPath id="68c6cfbca1"><path d="M 1079 183.5625 L 1221 183.5625 L 1221 322 L 1079 322 Z M 1079 183.5625 " clip-rule="nonzero"/></clipPath><clipPath id="279dfb9a76"><path d="M 1143 322 L 1252.5 322 L 1252.5 435 L 1143 435 Z M 1143 322 " clip-rule="nonzero"/></clipPath><clipPath id="b637641c8c"><path d="M 938.0625 183.375 L 1252.3125 183.375 L 1252.3125 497.625 L 938.0625 497.625 Z M 938.0625 183.375 " clip-rule="nonzero"/></clipPath><clipPath id="8a1e8bad24"><path d="M 938.0625 344 L 1092 344 L 1092 497.625 L 938.0625 497.625 Z M 938.0625 344 " clip-rule="nonzero"/></clipPath><clipPath id="a67c2a22f6"><path d="M 938.0625 295 L 1141 295 L 1141 497.625 L 938.0625 497.625 Z M 938.0625 295 " clip-rule="nonzero"/></clipPath><clipPath id="1b529f8bb0"><path d="M 970 359 L 1112 359 L 1112 497.625 L 970 497.625 Z M 970 359 " clip-rule="nonzero"/></clipPath><clipPath id="de2e97a7c1"><path d="M 938.0625 246 L 1047 246 L 1047 359 L 938.0625 359 Z M 938.0625 246 " clip-rule="nonzero"/></clipPath><clipPath id="763c36fda6"><path d="M 625.3125 183.375 L 939.5625 183.375 L 939.5625 497.625 L 625.3125 497.625 Z M 625.3125 183.375 " clip-rule="nonzero"/></clipPath><clipPath id="b09f653807"><path d="M 625.3125 183.375 L 779 183.375 L 779 338 L 625.3125 338 Z M 625.3125 183.375 " clip-rule="nonzero"/></clipPath><clipPath id="1363521556"><path d="M 625.3125 183.375 L 828 183.375 L 828 386 L 625.3125 386 Z M 625.3125 183.375 " clip-rule="nonzero"/></clipPath><clipPath id="d0b5f93b4a"><path d="M 625.3125 215 L 764 215 L 764 357 L 625.3125 357 Z M 625.3125 215 " clip-rule="nonzero"/></clipPath><clipPath id="74662296d7"><path d="M 764 183.375 L 877 183.375 L 877 293 L 764 293 Z M 764 183.375 " clip-rule="nonzero"/></clipPath><clipPath id="5e8a5748e2"><path d="M 625.125 183.5625 L 939.375 183.5625 L 939.375 497.8125 L 625.125 497.8125 Z M 625.125 183.5625 " clip-rule="nonzero"/></clipPath><clipPath id="50962b02a8"><path d="M 785 344 L 939.375 344 L 939.375 497.8125 L 785 497.8125 Z M 785 344 " clip-rule="nonzero"/></clipPath><clipPath id="e4361e00cc"><path d="M 736 295 L 939.375 295 L 939.375 497.8125 L 736 497.8125 Z M 736 295 " clip-rule="nonzero"/></clipPath><clipPath id="077efe07ab"><path d="M 801 324 L 939.375 324 L 939.375 466 L 801 466 Z M 801 324 " clip-rule="nonzero"/></clipPath><clipPath id="26dd1bc99e"><path d="M 688 389 L 801 389 L 801 497.8125 L 688 497.8125 Z M 688 389 " clip-rule="nonzero"/></clipPath><clipPath id="3cdca3b9f3"><path d="M 626.625 0 L 940.875 0 L 940.875 183.859375 L 626.625 183.859375 Z M 626.625 0 " clip-rule="nonzero"/></clipPath><clipPath id="d95d85249f"><path d="M 626.625 30 L 781 30 L 781 183.859375 L 626.625 183.859375 Z M 626.625 30 " clip-rule="nonzero"/></clipPath><clipPath id="c5fdbac70b"><path d="M 626.625 0 L 830 0 L 830 183.859375 L 626.625 183.859375 Z M 626.625 0 " clip-rule="nonzero"/></clipPath><clipPath id="c04e7af42f"><path d="M 658 45 L 800 45 L 800 183.859375 L 658 183.859375 Z M 658 45 " clip-rule="nonzero"/></clipPath><clipPath id="99f4dc5747"><path d="M 626.625 0 L 736 0 L 736 45 L 626.625 45 Z M 626.625 0 " clip-rule="nonzero"/></clipPath><clipPath id="d3061b9707"><path d="M 626.8125 0 L 941.0625 0 L 941.0625 184.125 L 626.8125 184.125 Z M 626.8125 0 " clip-rule="nonzero"/></clipPath><clipPath id="93de50e338"><path d="M 787 0 L 941.0625 0 L 941.0625 24 L 787 24 Z M 787 0 " clip-rule="nonzero"/></clipPath><clipPath id="cce9ad5775"><path d="M 738 0 L 941.0625 0 L 941.0625 73 L 738 73 Z M 738 0 " clip-rule="nonzero"/></clipPath><clipPath id="b4d3a3147f"><path d="M 832 9 L 941.0625 9 L 941.0625 121 L 832 121 Z M 832 9 " clip-rule="nonzero"/></clipPath><clipPath id="80e3c9c0c4"><path d="M 938.8125 0 L 1253.0625 0 L 1253.0625 184.875 L 938.8125 184.875 Z M 938.8125 0 " clip-rule="nonzero"/></clipPath><clipPath id="b1bd9e4eeb"><path d="M 1099 31 L 1253.0625 31 L 1253.0625 184.875 L 1099 184.875 Z M 1099 31 " clip-rule="nonzero"/></clipPath><clipPath id="04a768f9a4"><path d="M 1050 0 L 1253.0625 0 L 1253.0625 184.875 L 1050 184.875 Z M 1050 0 " clip-rule="nonzero"/></clipPath><clipPath id="21223185a3"><path d="M 1114 11 L 1253.0625 11 L 1253.0625 153 L 1114 153 Z M 1114 11 " clip-rule="nonzero"/></clipPath><clipPath id="ec7fa29d8b"><path d="M 1002 76 L 1114 76 L 1114 184.875 L 1002 184.875 Z M 1002 76 " clip-rule="nonzero"/></clipPath><clipPath id="3a8bd8500e"><path d="M 939.75 0 L 1254 0 L 1254 184.6875 L 939.75 184.6875 Z M 939.75 0 " clip-rule="nonzero"/></clipPath><clipPath id="563fa688b5"><path d="M 939.75 0 L 1094 0 L 1094 25 L 939.75 25 Z M 939.75 0 " clip-rule="nonzero"/></clipPath><clipPath id="c765ea9052"><path d="M 939.75 0 L 1143 0 L 1143 74 L 939.75 74 Z M 939.75 0 " clip-rule="nonzero"/></clipPath><clipPath id="8bee5cc41c"><path d="M 939.75 0 L 1078 0 L 1078 44 L 939.75 44 Z M 939.75 0 " clip-rule="nonzero"/></clipPath><clipPath id="8e32366142"><path d="M 626.625 495.5625 L 940.875 495.5625 L 940.875 809.8125 L 626.625 809.8125 Z M 626.625 495.5625 " clip-rule="nonzero"/></clipPath><clipPath id="5c311556ce"><path d="M 626.625 656 L 781 656 L 781 809.8125 L 626.625 809.8125 Z M 626.625 656 " clip-rule="nonzero"/></clipPath><clipPath id="b0d170844d"><path d="M 626.625 607 L 830 607 L 830 809.8125 L 626.625 809.8125 Z M 626.625 607 " clip-rule="nonzero"/></clipPath><clipPath id="98abc6837f"><path d="M 658 671 L 800 671 L 800 809.8125 L 658 809.8125 Z M 658 671 " clip-rule="nonzero"/></clipPath><clipPath id="3b2a92fa3a"><path d="M 626.625 558 L 736 558 L 736 671 L 626.625 671 Z M 626.625 558 " clip-rule="nonzero"/></clipPath><clipPath id="1c427be450"><path d="M 626.8125 495.75 L 941.0625 495.75 L 941.0625 810 L 626.8125 810 Z M 626.8125 495.75 " clip-rule="nonzero"/></clipPath><clipPath id="3a384443bc"><path d="M 787 495.75 L 941.0625 495.75 L 941.0625 650 L 787 650 Z M 787 495.75 " clip-rule="nonzero"/></clipPath><clipPath id="63d501f333"><path d="M 738 495.75 L 941.0625 495.75 L 941.0625 699 L 738 699 Z M 738 495.75 " clip-rule="nonzero"/></clipPath><clipPath id="99e16f3cc8"><path d="M 767 495.75 L 909 495.75 L 909 634 L 767 634 Z M 767 495.75 " clip-rule="nonzero"/></clipPath><clipPath id="ba73685454"><path d="M 832 635 L 941.0625 635 L 941.0625 747 L 832 747 Z M 832 635 " clip-rule="nonzero"/></clipPath><clipPath id="df767800bf"><path d="M 939.5625 495.75 L 1253.8125 495.75 L 1253.8125 810 L 939.5625 810 Z M 939.5625 495.75 " clip-rule="nonzero"/></clipPath><clipPath id="8c6bcc54b5"><path d="M 1100 656 L 1253.8125 656 L 1253.8125 810 L 1100 810 Z M 1100 656 " clip-rule="nonzero"/></clipPath><clipPath id="540c688f2b"><path d="M 1051 607 L 1253.8125 607 L 1253.8125 810 L 1051 810 Z M 1051 607 " clip-rule="nonzero"/></clipPath><clipPath id="40c1b7b1a7"><path d="M 1115 636 L 1253.8125 636 L 1253.8125 778 L 1115 778 Z M 1115 636 " clip-rule="nonzero"/></clipPath><clipPath id="e9990b7bdd"><path d="M 939.75 495.5625 L 1254 495.5625 L 1254 809.8125 L 939.75 809.8125 Z M 939.75 495.5625 " clip-rule="nonzero"/></clipPath><clipPath id="bcfd6e8333"><path d="M 939.75 495.5625 L 1094 495.5625 L 1094 650 L 939.75 650 Z M 939.75 495.5625 " clip-rule="nonzero"/></clipPath><clipPath id="3aa9b302dc"><path d="M 939.75 495.5625 L 1143 495.5625 L 1143 699 L 939.75 699 Z M 939.75 495.5625 " clip-rule="nonzero"/></clipPath><clipPath id="9603e19491"><path d="M 939.75 527 L 1078 527 L 1078 669 L 939.75 669 Z M 939.75 527 " clip-rule="nonzero"/></clipPath><clipPath id="43f0120740"><path d="M 1079 495.5625 L 1191 495.5625 L 1191 605 L 1079 605 Z M 1079 495.5625 " clip-rule="nonzero"/></clipPath><clipPath id="12b2fc01c3"><path d="M 1251.75 0 L 1440 0 L 1440 182.359375 L 1251.75 182.359375 Z M 1251.75 0 " clip-rule="nonzero"/></clipPath><clipPath id="5e5c647117"><path d="M 1251.75 28 L 1406 28 L 1406 182.359375 L 1251.75 182.359375 Z M 1251.75 28 " clip-rule="nonzero"/></clipPath><clipPath id="f5d0230d00"><path d="M 1251.75 0 L 1440 0 L 1440 182.359375 L 1251.75 182.359375 Z M 1251.75 0 " clip-rule="nonzero"/></clipPath><clipPath id="4a06d36dc2"><path d="M 1283 44 L 1425 44 L 1425 182.359375 L 1283 182.359375 Z M 1283 44 " clip-rule="nonzero"/></clipPath><clipPath id="cb43a7befa"><path d="M 1251.75 0 L 1361 0 L 1361 43 L 1251.75 43 Z M 1251.75 0 " clip-rule="nonzero"/></clipPath><clipPath id="3ba663a4b8"><path d="M 1251.9375 0 L 1440 0 L 1440 182.625 L 1251.9375 182.625 Z M 1251.9375 0 " clip-rule="nonzero"/></clipPath><clipPath id="897602d22c"><path d="M 1252.011719 181.125 L 1440 181.125 L 1440 495.375 L 1252.011719 495.375 Z M 1252.011719 181.125 " clip-rule="nonzero"/></clipPath><clipPath id="0f6dc0e1b1"><path d="M 1252.011719 181.125 L 1406 181.125 L 1406 335 L 1252.011719 335 Z M 1252.011719 181.125 " clip-rule="nonzero"/></clipPath><clipPath id="16c3179422"><path d="M 1252.011719 181.125 L 1440 181.125 L 1440 384 L 1252.011719 384 Z M 1252.011719 181.125 " clip-rule="nonzero"/></clipPath><clipPath id="a5dcc20ac5"><path d="M 1252.011719 213 L 1391 213 L 1391 355 L 1252.011719 355 Z M 1252.011719 213 " clip-rule="nonzero"/></clipPath><clipPath id="b64593c1ea"><path d="M 1391 181.125 L 1440 181.125 L 1440 290 L 1391 290 Z M 1391 181.125 " clip-rule="nonzero"/></clipPath><clipPath id="8154b0dcb0"><path d="M 1251.75 181.3125 L 1440 181.3125 L 1440 495.5625 L 1251.75 495.5625 Z M 1251.75 181.3125 " clip-rule="nonzero"/></clipPath><clipPath id="9f67a34571"><path d="M 1412 341 L 1440 341 L 1440 495.5625 L 1412 495.5625 Z M 1412 341 " clip-rule="nonzero"/></clipPath><clipPath id="a563b79d12"><path d="M 1363 292 L 1440 292 L 1440 495.5625 L 1363 495.5625 Z M 1363 292 " clip-rule="nonzero"/></clipPath><clipPath id="06b3f029db"><path d="M 1315 386 L 1427 386 L 1427 495.5625 L 1315 495.5625 Z M 1315 386 " clip-rule="nonzero"/></clipPath><clipPath id="b146c651eb"><path d="M 1251.75 493.3125 L 1440 493.3125 L 1440 807.5625 L 1251.75 807.5625 Z M 1251.75 493.3125 " clip-rule="nonzero"/></clipPath><clipPath id="4f624dec65"><path d="M 1251.75 653 L 1406 653 L 1406 807.5625 L 1251.75 807.5625 Z M 1251.75 653 " clip-rule="nonzero"/></clipPath><clipPath id="9f56c22240"><path d="M 1251.75 604 L 1440 604 L 1440 807.5625 L 1251.75 807.5625 Z M 1251.75 604 " clip-rule="nonzero"/></clipPath><clipPath id="89c18e08e4"><path d="M 1283 669 L 1425 669 L 1425 807.5625 L 1283 807.5625 Z M 1283 669 " clip-rule="nonzero"/></clipPath><clipPath id="56ea6ff497"><path d="M 1251.75 556 L 1361 556 L 1361 669 L 1251.75 669 Z M 1251.75 556 " clip-rule="nonzero"/></clipPath><clipPath id="2fdc142563"><path d="M 1251.9375 493.5 L 1440 493.5 L 1440 807.75 L 1251.9375 807.75 Z M 1251.9375 493.5 " clip-rule="nonzero"/></clipPath><clipPath id="ca5a71618d"><path d="M 1412 493.5 L 1440 493.5 L 1440 648 L 1412 648 Z M 1412 493.5 " clip-rule="nonzero"/></clipPath><clipPath id="57e1832bc1"><path d="M 1363 493.5 L 1440 493.5 L 1440 696 L 1363 696 Z M 1363 493.5 " clip-rule="nonzero"/></clipPath><clipPath id="5bb8236606"><path d="M 1392 493.5 L 1440 493.5 L 1440 632 L 1392 632 Z M 1392 493.5 " clip-rule="nonzero"/></clipPath><clipPath id="ab9a58035b"><path d="M 1252.011719 806.25 L 1440 806.25 L 1440 810 L 1252.011719 810 Z M 1252.011719 806.25 " clip-rule="nonzero"/></clipPath><clipPath id="b20d92dd46"><path d="M 1252.011719 806.25 L 1406 806.25 L 1406 810 L 1252.011719 810 Z M 1252.011719 806.25 " clip-rule="nonzero"/></clipPath><clipPath id="6a58bdce72"><path d="M 1252.011719 806.25 L 1440 806.25 L 1440 810 L 1252.011719 810 Z M 1252.011719 806.25 " clip-rule="nonzero"/></clipPath><clipPath id="76dbd7e2a7"><path d="M 1391 806.25 L 1440 806.25 L 1440 810 L 1391 810 Z M 1391 806.25 " clip-rule="nonzero"/></clipPath><clipPath id="3e6b136bac"><path d="M 1251.75 806.4375 L 1440 806.4375 L 1440 810 L 1251.75 810 Z M 1251.75 806.4375 " clip-rule="nonzero"/></clipPath></defs><rect x="-144" width="1728" fill="#ffffff" y="-80.999999" height="971.999992" fill-opacity="1"/><rect x="-144" width="1728" fill="#ffffff" y="-80.999999" height="971.999992" fill-opacity="1"/><g clip-path="url(#6fe6ad782b)"><path fill="#262262" d="M 314.234375 809.796875 L 104.367188 809.796875 L 0 705.429688 L 0 495.5625 Z M 314.234375 809.796875 " fill-opacity="1" fill-rule="nonzero"/></g><g clip-path="url(#ee331c9120)"><path fill="#1b75bc" d="M 153.636719 809.796875 L 0 809.796875 L 0 656.160156 Z M 153.636719 809.796875 " fill-opacity="1" fill-rule="nonzero"/></g><g clip-path="url(#6f3e1c01b4)"><path fill="#00aeef" d="M 202.554688 809.796875 L 98.144531 809.796875 L 0 711.65625 L 0 607.242188 Z M 202.554688 809.796875 " fill-opacity="1" fill-rule="nonzero"/></g><g clip-path="url(#f261c9f79e)"><path fill="#ffffff" d="M 173.164062 809.796875 L 167.558594 809.796875 L 32.058594 674.300781 L 34.863281 671.5 Z M 173.164062 809.796875 " fill-opacity="1" fill-rule="nonzero"/></g><path fill="#ffffff" d="M 108.644531 667.59375 L 105.84375 670.398438 L 0 564.554688 L 0 558.949219 Z M 108.644531 667.59375 " fill-opacity="1" fill-rule="nonzero"/><g clip-path="url(#533558b043)"><path fill="#1b75bc" d="M 0.015625 495.578125 L 210.007812 495.578125 L 314.4375 600.007812 L 314.4375 810 Z M 0.015625 495.578125 " fill-opacity="1" fill-rule="nonzero"/></g><g clip-path="url(#6801d65645)"><path fill="#262262" d="M 160.707031 495.578125 L 314.4375 495.578125 L 314.4375 649.304688 Z M 160.707031 495.578125 " fill-opacity="1" fill-rule="nonzero"/></g><g clip-path="url(#e8445741ec)"><path fill="#00aeef" d="M 111.761719 495.578125 L 216.234375 495.578125 L 314.4375 593.777344 L 314.4375 698.25 Z M 111.761719 495.578125 " fill-opacity="1" fill-rule="nonzero"/></g><g clip-path="url(#ab33153503)"><path fill="#ffffff" d="M 141.171875 495.578125 L 146.78125 495.578125 L 282.359375 631.15625 L 279.554688 633.957031 Z M 141.171875 495.578125 " fill-opacity="1" fill-rule="nonzero"/></g><g clip-path="url(#0d37886c1a)"><path fill="#ffffff" d="M 205.726562 637.863281 L 208.53125 635.0625 L 314.4375 740.96875 L 314.4375 746.574219 Z M 205.726562 637.863281 " fill-opacity="1" fill-rule="nonzero"/></g><g clip-path="url(#6240e0f6c9)"><path fill="#262262" d="M 627.171875 495.765625 L 627.171875 705.632812 L 522.804688 810 L 312.9375 810 Z M 627.171875 495.765625 " fill-opacity="1" fill-rule="nonzero"/></g><g clip-path="url(#b1f35c1036)"><path fill="#1b75bc" d="M 627.171875 656.363281 L 627.171875 810 L 473.535156 810 Z M 627.171875 656.363281 " fill-opacity="1" fill-rule="nonzero"/></g><g clip-path="url(#9b012cb7ed)"><path fill="#00aeef" d="M 627.171875 607.445312 L 627.171875 711.855469 L 529.03125 810 L 424.617188 810 Z M 627.171875 607.445312 " fill-opacity="1" fill-rule="nonzero"/></g><g clip-path="url(#ce087d9bb3)"><path fill="#ffffff" d="M 627.171875 636.835938 L 627.171875 642.441406 L 491.675781 777.941406 L 488.875 775.136719 Z M 627.171875 636.835938 " fill-opacity="1" fill-rule="nonzero"/></g><path fill="#ffffff" d="M 484.96875 701.355469 L 487.773438 704.15625 L 381.929688 810 L 376.324219 810 Z M 484.96875 701.355469 " fill-opacity="1" fill-rule="nonzero"/><g clip-path="url(#f1b4a6ad5c)"><path fill="#1b75bc" d="M 312.953125 809.984375 L 312.953125 599.992188 L 417.382812 495.5625 L 627.375 495.5625 Z M 312.953125 809.984375 " fill-opacity="1" fill-rule="nonzero"/></g><g clip-path="url(#9c3b3dee8c)"><path fill="#262262" d="M 312.953125 649.292969 L 312.953125 495.5625 L 466.679688 495.5625 Z M 312.953125 649.292969 " fill-opacity="1" fill-rule="nonzero"/></g><g clip-path="url(#735c3ac981)"><path fill="#00aeef" d="M 312.953125 698.238281 L 312.953125 593.765625 L 411.152344 495.5625 L 515.625 495.5625 Z M 312.953125 698.238281 " fill-opacity="1" fill-rule="nonzero"/></g><g clip-path="url(#a4f33cd8dd)"><path fill="#ffffff" d="M 312.953125 668.828125 L 312.953125 663.21875 L 448.53125 527.640625 L 451.332031 530.445312 Z M 312.953125 668.828125 " fill-opacity="1" fill-rule="nonzero"/></g><g clip-path="url(#634708b525)"><path fill="#ffffff" d="M 455.238281 604.273438 L 452.4375 601.46875 L 558.34375 495.5625 L 563.949219 495.5625 Z M 455.238281 604.273438 " fill-opacity="1" fill-rule="nonzero"/></g><g clip-path="url(#c6031f80f9)"><path fill="#262262" d="M 199.035156 395.234375 L -10.832031 395.234375 L -115.199219 290.867188 L -115.199219 81 Z M 199.035156 395.234375 " fill-opacity="1" fill-rule="nonzero"/></g><g clip-path="url(#c6dd9133ae)"><path fill="#1b75bc" d="M 38.4375 395.234375 L -115.199219 395.234375 L -115.199219 241.597656 Z M 38.4375 395.234375 " fill-opacity="1" fill-rule="nonzero"/></g><g clip-path="url(#a05988a8f0)"><path fill="#00aeef" d="M 87.355469 395.234375 L -17.058594 395.234375 L -115.199219 297.09375 L -115.199219 192.679688 Z M 87.355469 395.234375 " fill-opacity="1" fill-rule="nonzero"/></g><g clip-path="url(#7685dc0d05)"><path fill="#ffffff" d="M 57.960938 395.234375 L 52.359375 395.234375 L -83.140625 259.738281 L -80.335938 256.9375 Z M 57.960938 395.234375 " fill-opacity="1" fill-rule="nonzero"/></g><g clip-path="url(#7db58bb14e)"><path fill="#1b75bc" d="M -115.117188 81.015625 L 94.875 81.015625 L 199.304688 185.445312 L 199.304688 395.4375 Z M -115.117188 81.015625 " fill-opacity="1" fill-rule="nonzero"/></g><g clip-path="url(#5f844c212c)"><path fill="#262262" d="M 45.578125 81.015625 L 199.304688 81.015625 L 199.304688 234.742188 Z M 45.578125 81.015625 " fill-opacity="1" fill-rule="nonzero"/></g><g clip-path="url(#afd7de3333)"><path fill="#00aeef" d="M -3.367188 81.015625 L 101.105469 81.015625 L 199.304688 179.214844 L 199.304688 283.6875 Z M -3.367188 81.015625 " fill-opacity="1" fill-rule="nonzero"/></g><g clip-path="url(#7757b8d2a5)"><path fill="#ffffff" d="M 26.039062 81.015625 L 31.648438 81.015625 L 167.226562 216.59375 L 164.421875 219.394531 Z M 26.039062 81.015625 " fill-opacity="1" fill-rule="nonzero"/></g><g clip-path="url(#b221a97489)"><path fill="#ffffff" d="M 90.59375 223.300781 L 93.398438 220.5 L 199.304688 326.40625 L 199.304688 332.011719 Z M 90.59375 223.300781 " fill-opacity="1" fill-rule="nonzero"/></g><g clip-path="url(#deac61bbbb)"><path fill="#262262" d="M 313.140625 182.828125 L 523.007812 182.828125 L 627.375 287.195312 L 627.375 497.0625 Z M 313.140625 182.828125 " fill-opacity="1" fill-rule="nonzero"/></g><g clip-path="url(#d1844d52cd)"><path fill="#1b75bc" d="M 473.738281 182.828125 L 627.375 182.828125 L 627.375 336.464844 Z M 473.738281 182.828125 " fill-opacity="1" fill-rule="nonzero"/></g><g clip-path="url(#b50978e5aa)"><path fill="#00aeef" d="M 424.820312 182.828125 L 529.230469 182.828125 L 627.375 280.96875 L 627.375 385.382812 Z M 424.820312 182.828125 " fill-opacity="1" fill-rule="nonzero"/></g><g clip-path="url(#be60af8071)"><path fill="#ffffff" d="M 454.210938 182.828125 L 459.816406 182.828125 L 595.316406 318.324219 L 592.511719 321.125 Z M 454.210938 182.828125 " fill-opacity="1" fill-rule="nonzero"/></g><g clip-path="url(#5b4c948401)"><path fill="#ffffff" d="M 518.730469 325.03125 L 521.53125 322.226562 L 627.375 428.070312 L 627.375 433.675781 Z M 518.730469 325.03125 " fill-opacity="1" fill-rule="nonzero"/></g><g clip-path="url(#e34f522b46)"><path fill="#1b75bc" d="M 627.359375 497.046875 L 417.367188 497.046875 L 312.9375 392.617188 L 312.9375 182.625 Z M 627.359375 497.046875 " fill-opacity="1" fill-rule="nonzero"/></g><g clip-path="url(#85ff6c6bb8)"><path fill="#262262" d="M 466.667969 497.046875 L 312.9375 497.046875 L 312.9375 343.320312 Z M 466.667969 497.046875 " fill-opacity="1" fill-rule="nonzero"/></g><g clip-path="url(#f5572b3e83)"><path fill="#00aeef" d="M 515.613281 497.046875 L 411.140625 497.046875 L 312.9375 398.847656 L 312.9375 294.375 Z M 515.613281 497.046875 " fill-opacity="1" fill-rule="nonzero"/></g><g clip-path="url(#1d34a6bfa5)"><path fill="#ffffff" d="M 486.203125 497.046875 L 480.59375 497.046875 L 345.015625 361.46875 L 347.820312 358.667969 Z M 486.203125 497.046875 " fill-opacity="1" fill-rule="nonzero"/></g><g clip-path="url(#518f38142e)"><path fill="#ffffff" d="M 421.648438 354.761719 L 418.84375 357.5625 L 312.9375 251.65625 L 312.9375 246.050781 Z M 421.648438 354.761719 " fill-opacity="1" fill-rule="nonzero"/></g><g clip-path="url(#fb5e03fb2e)"><path fill="#262262" d="M 0.203125 496.859375 L 0.203125 286.992188 L 104.570312 182.625 L 314.4375 182.625 Z M 0.203125 496.859375 " fill-opacity="1" fill-rule="nonzero"/></g><g clip-path="url(#d3a3348217)"><path fill="#1b75bc" d="M 0.203125 336.261719 L 0.203125 182.625 L 153.839844 182.625 Z M 0.203125 336.261719 " fill-opacity="1" fill-rule="nonzero"/></g><g clip-path="url(#83fc1fe349)"><path fill="#00aeef" d="M 0.203125 385.179688 L 0.203125 280.769531 L 98.34375 182.625 L 202.757812 182.625 Z M 0.203125 385.179688 " fill-opacity="1" fill-rule="nonzero"/></g><g clip-path="url(#7e21d10e11)"><path fill="#ffffff" d="M 0.203125 355.789062 L 0.203125 350.183594 L 135.699219 214.683594 L 138.5 217.488281 Z M 0.203125 355.789062 " fill-opacity="1" fill-rule="nonzero"/></g><g clip-path="url(#47fd581154)"><path fill="#ffffff" d="M 142.40625 291.269531 L 139.601562 288.46875 L 245.445312 182.625 L 251.050781 182.625 Z M 142.40625 291.269531 " fill-opacity="1" fill-rule="nonzero"/></g><g clip-path="url(#94fd206ba4)"><path fill="#1b75bc" d="M 314.421875 182.640625 L 314.421875 392.632812 L 209.992188 497.0625 L 0 497.0625 Z M 314.421875 182.640625 " fill-opacity="1" fill-rule="nonzero"/></g><g clip-path="url(#019e54ee80)"><path fill="#262262" d="M 314.421875 343.332031 L 314.421875 497.0625 L 160.695312 497.0625 Z M 314.421875 343.332031 " fill-opacity="1" fill-rule="nonzero"/></g><g clip-path="url(#d75fff6857)"><path fill="#00aeef" d="M 314.421875 294.386719 L 314.421875 398.859375 L 216.222656 497.0625 L 111.75 497.0625 Z M 314.421875 294.386719 " fill-opacity="1" fill-rule="nonzero"/></g><g clip-path="url(#6ab7fd82a2)"><path fill="#ffffff" d="M 314.421875 323.796875 L 314.421875 329.40625 L 178.84375 464.984375 L 176.042969 462.179688 Z M 314.421875 323.796875 " fill-opacity="1" fill-rule="nonzero"/></g><g clip-path="url(#0a6e6f6dbe)"><path fill="#ffffff" d="M 172.136719 388.351562 L 174.9375 391.15625 L 69.03125 497.0625 L 63.425781 497.0625 Z M 172.136719 388.351562 " fill-opacity="1" fill-rule="nonzero"/></g><g clip-path="url(#1d68bb1023)"><path fill="#262262" d="M 314.234375 183.09375 L 104.367188 183.09375 L 0 78.726562 L 0 -131.140625 Z M 314.234375 183.09375 " fill-opacity="1" fill-rule="nonzero"/></g><g clip-path="url(#07d3f36b11)"><path fill="#1b75bc" d="M 153.636719 183.09375 L 0 183.09375 L 0 29.457031 Z M 153.636719 183.09375 " fill-opacity="1" fill-rule="nonzero"/></g><g clip-path="url(#04d7c372cb)"><path fill="#00aeef" d="M 202.554688 183.09375 L 98.144531 183.09375 L 0 84.953125 L 0 -19.457031 Z M 202.554688 183.09375 " fill-opacity="1" fill-rule="nonzero"/></g><g clip-path="url(#0b4813d106)"><path fill="#ffffff" d="M 173.164062 183.09375 L 167.558594 183.09375 L 32.058594 47.597656 L 34.863281 44.796875 Z M 173.164062 183.09375 " fill-opacity="1" fill-rule="nonzero"/></g><path fill="#ffffff" d="M 108.644531 40.890625 L 105.84375 43.695312 L 0 -62.148438 L 0 -67.753906 Z M 108.644531 40.890625 " fill-opacity="1" fill-rule="nonzero"/><g clip-path="url(#dbb3b08db8)"><path fill="#1b75bc" d="M 0.015625 -131.046875 L 210.007812 -131.046875 L 314.4375 -26.617188 L 314.4375 183.375 Z M 0.015625 -131.046875 " fill-opacity="1" fill-rule="nonzero"/></g><g clip-path="url(#b48a3d7377)"><path fill="#262262" d="M 160.707031 -131.046875 L 314.4375 -131.046875 L 314.4375 22.679688 Z M 160.707031 -131.046875 " fill-opacity="1" fill-rule="nonzero"/></g><g clip-path="url(#c670401f93)"><path fill="#00aeef" d="M 111.761719 -131.046875 L 216.234375 -131.046875 L 314.4375 -32.847656 L 314.4375 71.625 Z M 111.761719 -131.046875 " fill-opacity="1" fill-rule="nonzero"/></g><path fill="#ffffff" d="M 141.171875 -131.046875 L 146.78125 -131.046875 L 282.359375 4.53125 L 279.554688 7.332031 Z M 141.171875 -131.046875 " fill-opacity="1" fill-rule="nonzero"/><g clip-path="url(#af9eeccb54)"><path fill="#ffffff" d="M 205.726562 11.238281 L 208.53125 8.4375 L 314.4375 114.34375 L 314.4375 119.949219 Z M 205.726562 11.238281 " fill-opacity="1" fill-rule="nonzero"/></g><g clip-path="url(#d419d3f23d)"><path fill="#262262" d="M 627.171875 -130.859375 L 627.171875 79.007812 L 522.804688 183.375 L 312.9375 183.375 Z M 627.171875 -130.859375 " fill-opacity="1" fill-rule="nonzero"/></g><g clip-path="url(#b1c0914d59)"><path fill="#1b75bc" d="M 627.171875 29.738281 L 627.171875 183.375 L 473.535156 183.375 Z M 627.171875 29.738281 " fill-opacity="1" fill-rule="nonzero"/></g><g clip-path="url(#35917dc77c)"><path fill="#00aeef" d="M 627.171875 -19.179688 L 627.171875 85.230469 L 529.03125 183.375 L 424.617188 183.375 Z M 627.171875 -19.179688 " fill-opacity="1" fill-rule="nonzero"/></g><g clip-path="url(#948d13b75b)"><path fill="#ffffff" d="M 627.171875 10.210938 L 627.171875 15.816406 L 491.675781 151.316406 L 488.875 148.511719 Z M 627.171875 10.210938 " fill-opacity="1" fill-rule="nonzero"/></g><g clip-path="url(#dceebc6820)"><path fill="#ffffff" d="M 484.96875 74.730469 L 487.773438 77.53125 L 381.929688 183.375 L 376.324219 183.375 Z M 484.96875 74.730469 " fill-opacity="1" fill-rule="nonzero"/></g><g clip-path="url(#4268d5c8cb)"><path fill="#1b75bc" d="M 312.953125 183.359375 L 312.953125 -26.632812 L 417.382812 -131.0625 L 627.375 -131.0625 Z M 312.953125 183.359375 " fill-opacity="1" fill-rule="nonzero"/></g><g clip-path="url(#30260d3085)"><path fill="#262262" d="M 312.953125 22.667969 L 312.953125 -131.0625 L 466.679688 -131.0625 Z M 312.953125 22.667969 " fill-opacity="1" fill-rule="nonzero"/></g><g clip-path="url(#2e9fb4a95f)"><path fill="#00aeef" d="M 312.953125 71.613281 L 312.953125 -32.859375 L 411.152344 -131.0625 L 515.625 -131.0625 Z M 312.953125 71.613281 " fill-opacity="1" fill-rule="nonzero"/></g><g clip-path="url(#b6931efdeb)"><path fill="#ffffff" d="M 312.953125 42.203125 L 312.953125 36.59375 L 448.53125 -98.984375 L 451.332031 -96.179688 Z M 312.953125 42.203125 " fill-opacity="1" fill-rule="nonzero"/></g><g clip-path="url(#d4547d5287)"><path fill="#262262" d="M 938.265625 183.578125 L 1148.132812 183.578125 L 1252.5 287.945312 L 1252.5 497.8125 Z M 938.265625 183.578125 " fill-opacity="1" fill-rule="nonzero"/></g><g clip-path="url(#cb9c9d2cbd)"><path fill="#1b75bc" d="M 1098.863281 183.578125 L 1252.5 183.578125 L 1252.5 337.214844 Z M 1098.863281 183.578125 " fill-opacity="1" fill-rule="nonzero"/></g><g clip-path="url(#d2495f9905)"><path fill="#00aeef" d="M 1049.945312 183.578125 L 1154.355469 183.578125 L 1252.5 281.71875 L 1252.5 386.132812 Z M 1049.945312 183.578125 " fill-opacity="1" fill-rule="nonzero"/></g><g clip-path="url(#68c6cfbca1)"><path fill="#ffffff" d="M 1079.335938 183.578125 L 1084.941406 183.578125 L 1220.441406 319.074219 L 1217.636719 321.875 Z M 1079.335938 183.578125 " fill-opacity="1" fill-rule="nonzero"/></g><g clip-path="url(#279dfb9a76)"><path fill="#ffffff" d="M 1143.855469 325.78125 L 1146.65625 322.976562 L 1252.5 428.820312 L 1252.5 434.425781 Z M 1143.855469 325.78125 " fill-opacity="1" fill-rule="nonzero"/></g><g clip-path="url(#b637641c8c)"><path fill="#1b75bc" d="M 1252.484375 497.796875 L 1042.492188 497.796875 L 938.0625 393.367188 L 938.0625 183.375 Z M 1252.484375 497.796875 " fill-opacity="1" fill-rule="nonzero"/></g><g clip-path="url(#8a1e8bad24)"><path fill="#262262" d="M 1091.792969 497.796875 L 938.0625 497.796875 L 938.0625 344.070312 Z M 1091.792969 497.796875 " fill-opacity="1" fill-rule="nonzero"/></g><g clip-path="url(#a67c2a22f6)"><path fill="#00aeef" d="M 1140.738281 497.796875 L 1036.265625 497.796875 L 938.0625 399.597656 L 938.0625 295.125 Z M 1140.738281 497.796875 " fill-opacity="1" fill-rule="nonzero"/></g><g clip-path="url(#1b529f8bb0)"><path fill="#ffffff" d="M 1111.328125 497.796875 L 1105.71875 497.796875 L 970.140625 362.21875 L 972.945312 359.417969 Z M 1111.328125 497.796875 " fill-opacity="1" fill-rule="nonzero"/></g><g clip-path="url(#de2e97a7c1)"><path fill="#ffffff" d="M 1046.773438 355.511719 L 1043.96875 358.3125 L 938.0625 252.40625 L 938.0625 246.800781 Z M 1046.773438 355.511719 " fill-opacity="1" fill-rule="nonzero"/></g><g clip-path="url(#763c36fda6)"><path fill="#262262" d="M 625.328125 497.609375 L 625.328125 287.742188 L 729.695312 183.375 L 939.5625 183.375 Z M 625.328125 497.609375 " fill-opacity="1" fill-rule="nonzero"/></g><g clip-path="url(#b09f653807)"><path fill="#1b75bc" d="M 625.328125 337.011719 L 625.328125 183.375 L 778.964844 183.375 Z M 625.328125 337.011719 " fill-opacity="1" fill-rule="nonzero"/></g><g clip-path="url(#1363521556)"><path fill="#00aeef" d="M 625.328125 385.929688 L 625.328125 281.519531 L 723.46875 183.375 L 827.882812 183.375 Z M 625.328125 385.929688 " fill-opacity="1" fill-rule="nonzero"/></g><g clip-path="url(#d0b5f93b4a)"><path fill="#ffffff" d="M 625.328125 356.539062 L 625.328125 350.933594 L 760.824219 215.433594 L 763.625 218.238281 Z M 625.328125 356.539062 " fill-opacity="1" fill-rule="nonzero"/></g><g clip-path="url(#74662296d7)"><path fill="#ffffff" d="M 767.53125 292.019531 L 764.726562 289.21875 L 870.570312 183.375 L 876.175781 183.375 Z M 767.53125 292.019531 " fill-opacity="1" fill-rule="nonzero"/></g><g clip-path="url(#5e8a5748e2)"><path fill="#1b75bc" d="M 939.546875 183.390625 L 939.546875 393.382812 L 835.117188 497.8125 L 625.125 497.8125 Z M 939.546875 183.390625 " fill-opacity="1" fill-rule="nonzero"/></g><g clip-path="url(#50962b02a8)"><path fill="#262262" d="M 939.546875 344.082031 L 939.546875 497.8125 L 785.820312 497.8125 Z M 939.546875 344.082031 " fill-opacity="1" fill-rule="nonzero"/></g><g clip-path="url(#e4361e00cc)"><path fill="#00aeef" d="M 939.546875 295.136719 L 939.546875 399.609375 L 841.347656 497.8125 L 736.875 497.8125 Z M 939.546875 295.136719 " fill-opacity="1" fill-rule="nonzero"/></g><g clip-path="url(#077efe07ab)"><path fill="#ffffff" d="M 939.546875 324.546875 L 939.546875 330.15625 L 803.96875 465.734375 L 801.167969 462.929688 Z M 939.546875 324.546875 " fill-opacity="1" fill-rule="nonzero"/></g><g clip-path="url(#26dd1bc99e)"><path fill="#ffffff" d="M 797.261719 389.101562 L 800.0625 391.90625 L 694.15625 497.8125 L 688.550781 497.8125 Z M 797.261719 389.101562 " fill-opacity="1" fill-rule="nonzero"/></g><g clip-path="url(#3cdca3b9f3)"><path fill="#262262" d="M 940.859375 183.847656 L 730.992188 183.847656 L 626.625 79.476562 L 626.625 -130.390625 Z M 940.859375 183.847656 " fill-opacity="1" fill-rule="nonzero"/></g><g clip-path="url(#d95d85249f)"><path fill="#1b75bc" d="M 780.261719 183.847656 L 626.625 183.847656 L 626.625 30.207031 Z M 780.261719 183.847656 " fill-opacity="1" fill-rule="nonzero"/></g><g clip-path="url(#c5fdbac70b)"><path fill="#00aeef" d="M 829.179688 183.847656 L 724.769531 183.847656 L 626.625 85.703125 L 626.625 -18.707031 Z M 829.179688 183.847656 " fill-opacity="1" fill-rule="nonzero"/></g><g clip-path="url(#c04e7af42f)"><path fill="#ffffff" d="M 799.789062 183.847656 L 794.183594 183.847656 L 658.683594 48.347656 L 661.488281 45.546875 Z M 799.789062 183.847656 " fill-opacity="1" fill-rule="nonzero"/></g><g clip-path="url(#99f4dc5747)"><path fill="#ffffff" d="M 735.269531 41.644531 L 732.46875 44.445312 L 626.625 -61.398438 L 626.625 -67.003906 Z M 735.269531 41.644531 " fill-opacity="1" fill-rule="nonzero"/></g><g clip-path="url(#d3061b9707)"><path fill="#1b75bc" d="M 626.640625 -130.296875 L 836.632812 -130.296875 L 941.0625 -25.867188 L 941.0625 184.125 Z M 626.640625 -130.296875 " fill-opacity="1" fill-rule="nonzero"/></g><g clip-path="url(#93de50e338)"><path fill="#262262" d="M 787.332031 -130.296875 L 941.0625 -130.296875 L 941.0625 23.429688 Z M 787.332031 -130.296875 " fill-opacity="1" fill-rule="nonzero"/></g><g clip-path="url(#cce9ad5775)"><path fill="#00aeef" d="M 738.386719 -130.296875 L 842.859375 -130.296875 L 941.0625 -32.097656 L 941.0625 72.375 Z M 738.386719 -130.296875 " fill-opacity="1" fill-rule="nonzero"/></g><path fill="#ffffff" d="M 767.796875 -130.296875 L 773.40625 -130.296875 L 908.984375 5.28125 L 906.179688 8.082031 Z M 767.796875 -130.296875 " fill-opacity="1" fill-rule="nonzero"/><g clip-path="url(#b4d3a3147f)"><path fill="#ffffff" d="M 832.351562 11.988281 L 835.15625 9.1875 L 941.0625 115.09375 L 941.0625 120.699219 Z M 832.351562 11.988281 " fill-opacity="1" fill-rule="nonzero"/></g><g clip-path="url(#80e3c9c0c4)"><path fill="#262262" d="M 1253.046875 -129.359375 L 1253.046875 80.507812 L 1148.679688 184.875 L 938.8125 184.875 Z M 1253.046875 -129.359375 " fill-opacity="1" fill-rule="nonzero"/></g><g clip-path="url(#b1bd9e4eeb)"><path fill="#1b75bc" d="M 1253.046875 31.238281 L 1253.046875 184.875 L 1099.410156 184.875 Z M 1253.046875 31.238281 " fill-opacity="1" fill-rule="nonzero"/></g><g clip-path="url(#04a768f9a4)"><path fill="#00aeef" d="M 1253.046875 -17.679688 L 1253.046875 86.730469 L 1154.90625 184.875 L 1050.492188 184.875 Z M 1253.046875 -17.679688 " fill-opacity="1" fill-rule="nonzero"/></g><g clip-path="url(#21223185a3)"><path fill="#ffffff" d="M 1253.046875 11.710938 L 1253.046875 17.316406 L 1117.550781 152.816406 L 1114.75 150.011719 Z M 1253.046875 11.710938 " fill-opacity="1" fill-rule="nonzero"/></g><g clip-path="url(#ec7fa29d8b)"><path fill="#ffffff" d="M 1110.84375 76.230469 L 1113.648438 79.03125 L 1007.804688 184.875 L 1002.199219 184.875 Z M 1110.84375 76.230469 " fill-opacity="1" fill-rule="nonzero"/></g><g clip-path="url(#3a8bd8500e)"><path fill="#1b75bc" d="M 939.578125 184.859375 L 939.578125 -25.132812 L 1044.007812 -129.5625 L 1254 -129.5625 Z M 939.578125 184.859375 " fill-opacity="1" fill-rule="nonzero"/></g><g clip-path="url(#563fa688b5)"><path fill="#262262" d="M 939.578125 24.167969 L 939.578125 -129.5625 L 1093.304688 -129.5625 Z M 939.578125 24.167969 " fill-opacity="1" fill-rule="nonzero"/></g><g clip-path="url(#c765ea9052)"><path fill="#00aeef" d="M 939.578125 73.113281 L 939.578125 -31.359375 L 1037.777344 -129.5625 L 1142.25 -129.5625 Z M 939.578125 73.113281 " fill-opacity="1" fill-rule="nonzero"/></g><g clip-path="url(#8bee5cc41c)"><path fill="#ffffff" d="M 939.578125 43.703125 L 939.578125 38.09375 L 1075.15625 -97.484375 L 1077.957031 -94.679688 Z M 939.578125 43.703125 " fill-opacity="1" fill-rule="nonzero"/></g><g clip-path="url(#8e32366142)"><path fill="#262262" d="M 940.859375 809.796875 L 730.992188 809.796875 L 626.625 705.429688 L 626.625 495.5625 Z M 940.859375 809.796875 " fill-opacity="1" fill-rule="nonzero"/></g><g clip-path="url(#5c311556ce)"><path fill="#1b75bc" d="M 780.261719 809.796875 L 626.625 809.796875 L 626.625 656.160156 Z M 780.261719 809.796875 " fill-opacity="1" fill-rule="nonzero"/></g><g clip-path="url(#b0d170844d)"><path fill="#00aeef" d="M 829.179688 809.796875 L 724.769531 809.796875 L 626.625 711.65625 L 626.625 607.242188 Z M 829.179688 809.796875 " fill-opacity="1" fill-rule="nonzero"/></g><g clip-path="url(#98abc6837f)"><path fill="#ffffff" d="M 799.789062 809.796875 L 794.183594 809.796875 L 658.683594 674.300781 L 661.488281 671.5 Z M 799.789062 809.796875 " fill-opacity="1" fill-rule="nonzero"/></g><g clip-path="url(#3b2a92fa3a)"><path fill="#ffffff" d="M 735.269531 667.59375 L 732.46875 670.398438 L 626.625 564.554688 L 626.625 558.949219 Z M 735.269531 667.59375 " fill-opacity="1" fill-rule="nonzero"/></g><g clip-path="url(#1c427be450)"><path fill="#1b75bc" d="M 626.640625 495.578125 L 836.632812 495.578125 L 941.0625 600.007812 L 941.0625 810 Z M 626.640625 495.578125 " fill-opacity="1" fill-rule="nonzero"/></g><g clip-path="url(#3a384443bc)"><path fill="#262262" d="M 787.332031 495.578125 L 941.0625 495.578125 L 941.0625 649.304688 Z M 787.332031 495.578125 " fill-opacity="1" fill-rule="nonzero"/></g><g clip-path="url(#63d501f333)"><path fill="#00aeef" d="M 738.386719 495.578125 L 842.859375 495.578125 L 941.0625 593.777344 L 941.0625 698.25 Z M 738.386719 495.578125 " fill-opacity="1" fill-rule="nonzero"/></g><g clip-path="url(#99e16f3cc8)"><path fill="#ffffff" d="M 767.796875 495.578125 L 773.40625 495.578125 L 908.984375 631.15625 L 906.179688 633.957031 Z M 767.796875 495.578125 " fill-opacity="1" fill-rule="nonzero"/></g><g clip-path="url(#ba73685454)"><path fill="#ffffff" d="M 832.351562 637.863281 L 835.15625 635.0625 L 941.0625 740.96875 L 941.0625 746.574219 Z M 832.351562 637.863281 " fill-opacity="1" fill-rule="nonzero"/></g><g clip-path="url(#df767800bf)"><path fill="#262262" d="M 1253.796875 495.765625 L 1253.796875 705.632812 L 1149.429688 810 L 939.5625 810 Z M 1253.796875 495.765625 " fill-opacity="1" fill-rule="nonzero"/></g><g clip-path="url(#8c6bcc54b5)"><path fill="#1b75bc" d="M 1253.796875 656.363281 L 1253.796875 810 L 1100.160156 810 Z M 1253.796875 656.363281 " fill-opacity="1" fill-rule="nonzero"/></g><g clip-path="url(#540c688f2b)"><path fill="#00aeef" d="M 1253.796875 607.445312 L 1253.796875 711.855469 L 1155.65625 810 L 1051.242188 810 Z M 1253.796875 607.445312 " fill-opacity="1" fill-rule="nonzero"/></g><g clip-path="url(#40c1b7b1a7)"><path fill="#ffffff" d="M 1253.796875 636.835938 L 1253.796875 642.441406 L 1118.300781 777.941406 L 1115.5 775.136719 Z M 1253.796875 636.835938 " fill-opacity="1" fill-rule="nonzero"/></g><path fill="#ffffff" d="M 1111.59375 701.355469 L 1114.398438 704.15625 L 1008.554688 810 L 1002.949219 810 Z M 1111.59375 701.355469 " fill-opacity="1" fill-rule="nonzero"/><g clip-path="url(#e9990b7bdd)"><path fill="#1b75bc" d="M 939.578125 809.984375 L 939.578125 599.992188 L 1044.007812 495.5625 L 1254 495.5625 Z M 939.578125 809.984375 " fill-opacity="1" fill-rule="nonzero"/></g><g clip-path="url(#bcfd6e8333)"><path fill="#262262" d="M 939.578125 649.292969 L 939.578125 495.5625 L 1093.304688 495.5625 Z M 939.578125 649.292969 " fill-opacity="1" fill-rule="nonzero"/></g><g clip-path="url(#3aa9b302dc)"><path fill="#00aeef" d="M 939.578125 698.238281 L 939.578125 593.765625 L 1037.777344 495.5625 L 1142.25 495.5625 Z M 939.578125 698.238281 " fill-opacity="1" fill-rule="nonzero"/></g><g clip-path="url(#9603e19491)"><path fill="#ffffff" d="M 939.578125 668.828125 L 939.578125 663.21875 L 1075.15625 527.640625 L 1077.957031 530.445312 Z M 939.578125 668.828125 " fill-opacity="1" fill-rule="nonzero"/></g><g clip-path="url(#43f0120740)"><path fill="#ffffff" d="M 1081.863281 604.273438 L 1079.0625 601.46875 L 1184.96875 495.5625 L 1190.574219 495.5625 Z M 1081.863281 604.273438 " fill-opacity="1" fill-rule="nonzero"/></g><g clip-path="url(#12b2fc01c3)"><path fill="#262262" d="M 1565.984375 182.34375 L 1356.117188 182.34375 L 1251.75 77.976562 L 1251.75 -131.890625 Z M 1565.984375 182.34375 " fill-opacity="1" fill-rule="nonzero"/></g><g clip-path="url(#5e5c647117)"><path fill="#1b75bc" d="M 1405.386719 182.34375 L 1251.75 182.34375 L 1251.75 28.707031 Z M 1405.386719 182.34375 " fill-opacity="1" fill-rule="nonzero"/></g><g clip-path="url(#f5d0230d00)"><path fill="#00aeef" d="M 1454.304688 182.34375 L 1349.894531 182.34375 L 1251.75 84.203125 L 1251.75 -20.210938 Z M 1454.304688 182.34375 " fill-opacity="1" fill-rule="nonzero"/></g><g clip-path="url(#4a06d36dc2)"><path fill="#ffffff" d="M 1424.914062 182.34375 L 1419.308594 182.34375 L 1283.808594 46.847656 L 1286.613281 44.046875 Z M 1424.914062 182.34375 " fill-opacity="1" fill-rule="nonzero"/></g><g clip-path="url(#cb43a7befa)"><path fill="#ffffff" d="M 1360.394531 40.140625 L 1357.59375 42.945312 L 1251.75 -62.898438 L 1251.75 -68.503906 Z M 1360.394531 40.140625 " fill-opacity="1" fill-rule="nonzero"/></g><g clip-path="url(#3ba663a4b8)"><path fill="#1b75bc" d="M 1251.765625 -131.796875 L 1461.757812 -131.796875 L 1566.1875 -27.367188 L 1566.1875 182.625 Z M 1251.765625 -131.796875 " fill-opacity="1" fill-rule="nonzero"/></g><path fill="#262262" d="M 1412.457031 -131.796875 L 1566.1875 -131.796875 L 1566.1875 21.929688 Z M 1412.457031 -131.796875 " fill-opacity="1" fill-rule="nonzero"/><path fill="#00aeef" d="M 1363.511719 -131.796875 L 1467.984375 -131.796875 L 1566.1875 -33.597656 L 1566.1875 70.875 Z M 1363.511719 -131.796875 " fill-opacity="1" fill-rule="nonzero"/><path fill="#ffffff" d="M 1392.921875 -131.796875 L 1398.53125 -131.796875 L 1534.109375 3.78125 L 1531.304688 6.582031 Z M 1392.921875 -131.796875 " fill-opacity="1" fill-rule="nonzero"/><g clip-path="url(#897602d22c)"><path fill="#262262" d="M 1252.027344 495.359375 L 1252.027344 285.492188 L 1356.394531 181.125 L 1566.261719 181.125 Z M 1252.027344 495.359375 " fill-opacity="1" fill-rule="nonzero"/></g><g clip-path="url(#0f6dc0e1b1)"><path fill="#1b75bc" d="M 1252.027344 334.761719 L 1252.027344 181.125 L 1405.664062 181.125 Z M 1252.027344 334.761719 " fill-opacity="1" fill-rule="nonzero"/></g><g clip-path="url(#16c3179422)"><path fill="#00aeef" d="M 1252.027344 383.679688 L 1252.027344 279.269531 L 1350.167969 181.125 L 1454.582031 181.125 Z M 1252.027344 383.679688 " fill-opacity="1" fill-rule="nonzero"/></g><g clip-path="url(#a5dcc20ac5)"><path fill="#ffffff" d="M 1252.027344 354.289062 L 1252.027344 348.683594 L 1387.523438 213.183594 L 1390.328125 215.988281 Z M 1252.027344 354.289062 " fill-opacity="1" fill-rule="nonzero"/></g><g clip-path="url(#b64593c1ea)"><path fill="#ffffff" d="M 1394.230469 289.769531 L 1391.425781 286.96875 L 1497.273438 181.125 L 1502.875 181.125 Z M 1394.230469 289.769531 " fill-opacity="1" fill-rule="nonzero"/></g><g clip-path="url(#8154b0dcb0)"><path fill="#1b75bc" d="M 1566.171875 181.140625 L 1566.171875 391.132812 L 1461.742188 495.5625 L 1251.75 495.5625 Z M 1566.171875 181.140625 " fill-opacity="1" fill-rule="nonzero"/></g><g clip-path="url(#9f67a34571)"><path fill="#262262" d="M 1566.171875 341.832031 L 1566.171875 495.5625 L 1412.445312 495.5625 Z M 1566.171875 341.832031 " fill-opacity="1" fill-rule="nonzero"/></g><g clip-path="url(#a563b79d12)"><path fill="#00aeef" d="M 1566.171875 292.886719 L 1566.171875 397.359375 L 1467.972656 495.5625 L 1363.5 495.5625 Z M 1566.171875 292.886719 " fill-opacity="1" fill-rule="nonzero"/></g><path fill="#ffffff" d="M 1566.171875 322.296875 L 1566.171875 327.90625 L 1430.59375 463.484375 L 1427.792969 460.679688 Z M 1566.171875 322.296875 " fill-opacity="1" fill-rule="nonzero"/><g clip-path="url(#06b3f029db)"><path fill="#ffffff" d="M 1423.886719 386.851562 L 1426.691406 389.65625 L 1320.78125 495.5625 L 1315.175781 495.5625 Z M 1423.886719 386.851562 " fill-opacity="1" fill-rule="nonzero"/></g><g clip-path="url(#b146c651eb)"><path fill="#262262" d="M 1565.984375 807.546875 L 1356.117188 807.546875 L 1251.75 703.179688 L 1251.75 493.3125 Z M 1565.984375 807.546875 " fill-opacity="1" fill-rule="nonzero"/></g><g clip-path="url(#4f624dec65)"><path fill="#1b75bc" d="M 1405.386719 807.546875 L 1251.75 807.546875 L 1251.75 653.910156 Z M 1405.386719 807.546875 " fill-opacity="1" fill-rule="nonzero"/></g><g clip-path="url(#9f56c22240)"><path fill="#00aeef" d="M 1454.304688 807.546875 L 1349.894531 807.546875 L 1251.75 709.40625 L 1251.75 604.992188 Z M 1454.304688 807.546875 " fill-opacity="1" fill-rule="nonzero"/></g><g clip-path="url(#89c18e08e4)"><path fill="#ffffff" d="M 1424.914062 807.546875 L 1419.308594 807.546875 L 1283.808594 672.050781 L 1286.613281 669.25 Z M 1424.914062 807.546875 " fill-opacity="1" fill-rule="nonzero"/></g><g clip-path="url(#56ea6ff497)"><path fill="#ffffff" d="M 1360.394531 665.34375 L 1357.59375 668.148438 L 1251.75 562.304688 L 1251.75 556.699219 Z M 1360.394531 665.34375 " fill-opacity="1" fill-rule="nonzero"/></g><g clip-path="url(#2fdc142563)"><path fill="#1b75bc" d="M 1251.765625 493.328125 L 1461.757812 493.328125 L 1566.1875 597.757812 L 1566.1875 807.75 Z M 1251.765625 493.328125 " fill-opacity="1" fill-rule="nonzero"/></g><g clip-path="url(#ca5a71618d)"><path fill="#262262" d="M 1412.457031 493.328125 L 1566.1875 493.328125 L 1566.1875 647.054688 Z M 1412.457031 493.328125 " fill-opacity="1" fill-rule="nonzero"/></g><g clip-path="url(#57e1832bc1)"><path fill="#00aeef" d="M 1363.511719 493.328125 L 1467.984375 493.328125 L 1566.1875 591.527344 L 1566.1875 696 Z M 1363.511719 493.328125 " fill-opacity="1" fill-rule="nonzero"/></g><g clip-path="url(#5bb8236606)"><path fill="#ffffff" d="M 1392.921875 493.328125 L 1398.53125 493.328125 L 1534.109375 628.90625 L 1531.304688 631.707031 Z M 1392.921875 493.328125 " fill-opacity="1" fill-rule="nonzero"/></g><g clip-path="url(#ab9a58035b)"><path fill="#262262" d="M 1252.027344 1120.484375 L 1252.027344 910.617188 L 1356.394531 806.25 L 1566.261719 806.25 Z M 1252.027344 1120.484375 " fill-opacity="1" fill-rule="nonzero"/></g><g clip-path="url(#b20d92dd46)"><path fill="#1b75bc" d="M 1252.027344 959.886719 L 1252.027344 806.25 L 1405.664062 806.25 Z M 1252.027344 959.886719 " fill-opacity="1" fill-rule="nonzero"/></g><g clip-path="url(#6a58bdce72)"><path fill="#00aeef" d="M 1252.027344 1008.804688 L 1252.027344 904.394531 L 1350.167969 806.25 L 1454.582031 806.25 Z M 1252.027344 1008.804688 " fill-opacity="1" fill-rule="nonzero"/></g><g clip-path="url(#76dbd7e2a7)"><path fill="#ffffff" d="M 1394.230469 914.894531 L 1391.425781 912.09375 L 1497.273438 806.25 L 1502.875 806.25 Z M 1394.230469 914.894531 " fill-opacity="1" fill-rule="nonzero"/></g><g clip-path="url(#3e6b136bac)"><path fill="#1b75bc" d="M 1566.171875 806.265625 L 1566.171875 1016.257812 L 1461.742188 1120.6875 L 1251.75 1120.6875 Z M 1566.171875 806.265625 " fill-opacity="1" fill-rule="nonzero"/></g></svg>